# AST/ASF file generated using VICON BodyLanguage
# -----------------------------------------------
:version 1.10
:name VICON
:units
  mass 1.0
  length 0.45
  angle deg
:documentation
   .ast/.asf automatically generated from VICON data using
   VICON BodyBuilder and BodyLanguage model FoxedUp or BRILLIANT.MOD
:root
   order TX TY TZ RX RY RZ
   axis XYZ
   position 0 0 0  
   orientation 0 0 0 
:bonedata
  begin
     id 1 
     name lhipjoint
     direction 0.671379 -0.66392 0.329334 
     length 2.38647 
     axis 0 0 0  XYZ
  end
  begin
     id 2 
     name lfemur
     direction 0.34202 -0.939693 0  
     length 6.48179  
     axis 0 0 20  XYZ
    dof rx ry rz
    limits (-160.0 20.0)
           (-70.0 70.0)
           (-60.0 70.0)
  end
  begin
     id 3 
     name ltibia
     direction 0.34202 -0.939693 0   
     length 6.86524   
     axis 0 0 20   XYZ
    dof rx
    limits (-10.0 170.0)
  end
  begin
     id 4 
     name lfoot
     direction 0.204886 -0.562919 0.800715   
     length 1.73031   
     axis -90 7.62852e-016 20   XYZ
    dof rx rz
    limits (-45.0 90.0)
           (-70.0 20.0)
  end
  begin
     id 5 
     name ltoes
     direction 1.53548e-011 -4.21841e-011 1   
     length 0.828161   
     axis -90 7.62852e-016 20   XYZ
    dof rx
    limits (-90.0 20.0)
  end
  begin
     id 6 
     name rhipjoint
     direction -0.662732 -0.670855 0.332775   
     length 2.3618  
     axis 0 0 0  XYZ 
  end
  begin
     id 7 
     name rfemur
     direction -0.34202 -0.939693 0   
     length 6.3025   
     axis 0 0 -20   XYZ
    dof rx ry rz
    limits (-160.0 20.0)
           (-70.0 70.0)
           (-70.0 60.0)
  end
  begin
     id 8 
     name rtibia
     direction -0.34202 -0.939693 0   
     length 6.8732   
     axis 0 0 -20   XYZ
    dof rx
    limits (-10.0 170.0)
 end
 begin
     id 9 
     name rfoot
     direction -0.173856 -0.477665 0.861168   
     length 1.54784  
     axis -90 -7.62852e-016 -20   XYZ
    dof rx rz
    limits (-45.0 90.0)
           (-20.0 70.0)
  end
  begin
     id 10 
     name rtoes
     direction -1.53562e-011 -4.21802e-011 1   
     length 0.759618   
     axis -90 -7.62852e-016 -20   XYZ
    dof rx
    limits (-90.0 20.0)
  end
  begin
     id 11 
     name lowerback
     direction -0.0278357 0.999497 -0.0151789   
     length 1.97203   
     axis 0 0 0   XYZ
    dof rx ry rz
    limits (-20.0 45.0)
           (-30.0 30.0)
           (-30.0 30.0)
  end
  begin
     id 12 
     name upperback
     direction -0.00360622 0.997542 0.0699804   
     length 1.94709   
     axis 0 0 0   XYZ
    dof rx ry rz
    limits (-20.0 45.0)
           (-30.0 30.0)
           (-30.0 30.0)
  end
  begin
     id 13 
     name thorax
     direction 0.00907706 0.997048 0.0762461   
     length 1.95722   
     axis 0 0 0   XYZ
    dof rx ry rz
    limits (-20.0 45.0)
           (-30.0 30.0)
           (-30.0 30.0)
  end
  begin
     id 14 
     name lowerneck
     direction -0.0481835 0.99872 -0.0153927   
     length 1.63078   
     axis 0 0 0   XYZ
    dof rx ry rz
    limits (-20.0 45.0)
           (-30.0 30.0)
           (-30.0 30.0)
  end
  begin
     id 15 
     name upperneck
     direction 0.0859716 0.979226 -0.183644   
     length 1.62591   
     axis 0 0 0   XYZ
    dof rx ry rz
    limits (-20.0 45.0)
           (-30.0 30.0)
           (-30.0 30.0)
  end
  begin
     id 16
     name head
     direction 0.0324821 0.997629 -0.0606773  
     length 1.64811  
     axis 0 0 0   XYZ
    dof rx ry rz
    limits (-20.0 45.0)
           (-30.0 30.0)
           (-30.0 30.0)
  end
  begin
     id 17 
     name lclavicle
     direction 0.939609 0.311019 0.142835  
     length 3.70647  
     axis 0 0 0   XYZ
    dof ry rz
    limits (-20.0 10.0)
           (0.0 20.0)
  end
  begin
     id 18 
     name lhumerus
     direction 1 -4.48963e-011 -1.59838e-027   
     length 4.59207   
     axis 180 -30 -90   XYZ
    dof rx ry rz
    limits (-60.0 90.0)
           (-90.0 90.0)
           (-90.0 90.0)
  end
  begin
     id 19
     name lradius
     direction 1 -4.48957e-011 -1.3483e-026   
     length 2.98109   
     axis 180 -30 -90   XYZ
    dof rx
    limits (-10.0 170.0)
  end
  begin
     id 20
     name lwrist
     direction 1 -4.48954e-011 -3.11579e-026   
     length 1.49055   
     axis 2.00652e-014 90 90   XYZ
    dof ry
    limits (-180.0 0.0)
 end
  begin
     id 21 
     name lhand
     direction 1 -4.4911e-011 -6.23158e-026   
     length 0.480203   
     axis 3.97628e-014 90 90   XYZ
    dof rx rz
    limits (-90.0 90.0)
           (-45.0 45.0)
  end
  begin
     id 22 
     name lfingers
     direction 1 -4.48893e-011 -1.24632e-025   
     length 0.387152   
     axis 7.95256e-014 90 90   XYZ
    dof rx
    limits (0.0 90.0)
  end
  begin
     id 23
     name lthumb
     direction 0.707107 -6.35013e-011 0.707107   
     length 0.555875   
     axis -90 45 2.85299e-015   XYZ
    dof rx rz
    limits (-45.0 45.0)
           (-45.0 45.0)
  end
  begin
     id 24 
     name rclavicle
     direction -0.950396 0.30392 0.0661859   
     length 3.70894  
     axis 0 0 0   XYZ 
    dof ry rz
    limits (-10.0 20.0)
           (-20.0 0.0)
  end
  begin
     id 25 
     name rhumerus
     direction -1 -4.48957e-011 -2.96677e-027  
     length 4.76508   
     axis 180 30 90   XYZ
    dof rx ry rz
    limits (-90.0 60.0)
           (-90.0 90.0)
           (-90.0 90.0)
  end
  begin
     id 26 
     name rradius
     direction -1 -4.48974e-011 -1.44501e-026   
     length 2.78902   
     axis 180 30 90   XYZ
    dof rx
    limits (-10.0 170.0)
  end
  begin
     id 27 
     name rwrist
     direction -1 -4.48978e-011 -3.11579e-026   
     length 1.39451   
     axis 2.00652e-014 -90 -90   XYZ
    dof ry
    limits (-180.0 0.0)
  end
  begin
     id 28
     name rhand
     direction -1 -4.48956e-011 -6.23158e-026   
     length 0.721303   
     axis 3.97628e-014 -90 -90   XYZ
    dof rx rz
    limits (-90.0 90.0)
           (-45.0 45.0)
  end
  begin
     id 29
     name rfingers
     direction -1 -4.4899e-011 -1.24632e-025   
     length 0.581533   
     axis 7.95256e-014 -90 -90   XYZ
    dof rx
    limits (0.0 90.0)
  end
  begin
     id 30
     name rthumb
     direction -0.707107 -6.34911e-011 0.707107   
     length 0.834968   
     axis -90 -45 -2.85299e-015   XYZ
    dof rx rz
    limits (-45.0 45.0)
           (-45.0 45.0)
  end
:hierarchy
  begin
    root lhipjoint rhipjoint lowerback
    lhipjoint lfemur
    lfemur ltibia
    ltibia lfoot
    lfoot ltoes
    rhipjoint rfemur
    rfemur rtibia
    rtibia rfoot
    rfoot rtoes
    lowerback upperback
    upperback thorax
    thorax lowerneck lclavicle rclavicle
    lowerneck upperneck
    upperneck head
    lclavicle lhumerus
    lhumerus lradius
    lradius lwrist
    lwrist lhand lthumb
    lhand lfingers
    rclavicle rhumerus
    rhumerus rradius
    rradius rwrist
    rwrist rhand rthumb
    rhand rfingers
  end

#!OML:ASF I:\salsa\salsa 7_09\Patient 1\Session 1\dancerfemale.ASF
:FULLY-SPECIFIED
:DEGREES
1368
root 8.3743 16.1853 -3.43658 -879.858 504.01 -536.582
lowerback -0.11994 -1.34226 9.64282
upperback -10.957 -1.43681 -3.9317
thorax -12.3683 -1.90822 -9.68149
lowerneck 5.85945 -24.9882 -7.27508
upperneck -12.8105 -32.5995 21.5105
head 0.0171259 -16.9505 6.61989
rclavicle 1.92324e-014 3.1408e-014
rhumerus 71.9084 6.25743 -70.5646
rradius 78.423
rwrist -11.33
rhand -19.288 424.863
rfingers 7.12502
rthumb 7.02713 395
lclavicle 1.92324e-014 3.1408e-014
lhumerus -74.0561 -2.97678 88.8644
lradius 87.9901
lwrist -5.86509
lhand -14.0954 52.3709
lfingers 7.12502
lthumb 12.0371 82.0047
rfemur -16.6956 -12.8608 32.8933
rtibia 19.4788
rfoot -60.2053 -34.9094
rtoes 40.2674
lfemur -45.4538 15.0003 -27.0801
ltibia 53.5014
lfoot -29.16 30.7335
ltoes -4.83287
1369
root 8.54344 16.1922 -3.46954 -878.873 499.804 -535.243
lowerback -0.564451 -1.1793 9.00172
upperback -11.1069 -1.24415 -3.79232
thorax -12.1671 -1.71659 -9.17124
lowerneck 5.9575 -24.411 -8.18139
upperneck -13.7513 -31.6874 23.1329
head 0.0433923 -16.5645 7.2164
rclavicle 1.08884e-013 8.74653e-015
rhumerus 76.1213 5.46 -70.1893
rradius 77.3192
rwrist -9.32658
rhand -18.7137 423.469
rfingers 7.12502
rthumb 7.58154 393.624
lclavicle 1.08884e-013 8.74653e-015
lhumerus -74.3496 -2.06479 88.7719
lradius 88.4374
lwrist -5.31205
lhand -12.4696 51.1781
lfingers 7.12502
lthumb 13.6045 80.7136
rfemur -16.5533 -13.2307 32.1247
rtibia 19.0608
rfoot -63.3842 -36.4401
rtoes 41.8813
lfemur -45.4949 17.1042 -29.6435
ltibia 52.3559
lfoot -28.7662 30.1983
ltoes 2.52718
1370
root 8.72436 16.2064 -3.49085 -878.068 496.236 -534.349
lowerback -1.21316 -0.804073 8.40464
upperback -11.1933 -0.76403 -3.55703
thorax -11.7037 -1.36516 -8.6013
lowerneck 5.69495 -23.7611 -8.53015
upperneck -14.6107 -30.5952 24.4595
head -0.0274363 -16.078 7.70819
rclavicle 5.02118e-014 -2.52457e-014
rhumerus 80.2297 5.377 -70.3984
rradius 76.4246
rwrist -6.69053
rhand -18.1306 422.148
rfingers 7.12502
rthumb 8.14427 392.325
lclavicle 5.02118e-014 -2.52457e-014
lhumerus -74.4817 -1.03531 88.6112
lradius 88.8121
lwrist -5.12596
lhand -10.9523 50.4748
lfingers 7.12502
lthumb 15.0665 79.9066
rfemur -16.4181 -13.6861 31.4838
rtibia 19.0179
rfoot -65.468 -37.2038
rtoes 42.5045
lfemur -45.2914 18.827 -31.5773
ltibia 51.2335
lfoot -28.0202 29.7574
ltoes 12.0884
1371
root 8.93107 16.2003 -3.52969 -877.744 492.379 -533.859
lowerback -1.84508 -0.404943 8.43859
upperback -11.0997 -0.22674 -3.33462
thorax -11.0791 -1.03867 -8.4052
lowerneck 5.2044 -23.0868 -8.26488
upperneck -15.5137 -29.361 25.5402
head -0.244087 -15.5252 8.11321
rclavicle 2.55128e-014 2.15184e-014
rhumerus 84.0331 5.70111 -70.746
rradius 75.7799
rwrist -3.62539
rhand -17.6706 420.986
rfingers 7.12502
rthumb 8.58824 391.18
lclavicle 2.55128e-014 2.15184e-014
lhumerus -74.2216 -0.2672 88.5261
lradius 88.9586
lwrist -5.28474
lhand -9.82444 49.3029
lfingers 7.12502
lthumb 16.1527 78.6498
rfemur -16.1493 -15.9393 31.2806
rtibia 19.2695
rfoot -65.0665 -37.8602
rtoes 42.4375
lfemur -44.7672 19.7718 -32.8121
ltibia 50.4672
lfoot -27.927 28.2577
ltoes 11.5947
1372
root 9.15032 16.1814 -3.58541 -878.579 487.869 -534.997
lowerback -2.55902 0.105216 9.79508
upperback -11.1311 0.526383 -2.87723
thorax -10.5659 -0.724999 -8.71485
lowerneck 4.84358 -22.3837 -7.80779
upperneck -16.2987 -28.0706 26.337
head -0.540581 -14.9422 8.45955
rclavicle 6.80837e-015 -3.4191e-014
rhumerus 87.1769 6.32757 -70.9561
rradius 75.3443
rwrist -0.326796
rhand -17.0682 420.124
rfingers 7.12502
rthumb 9.16949 390.343
lclavicle 6.80837e-015 -3.4191e-014
lhumerus -73.9995 0.194167 88.7052
lradius 89.026
lwrist -5.61888
lhand -8.81114 47.951
lfingers 7.12502
lthumb 17.1282 77.216
rfemur -16.2336 -18.6708 32.37
rtibia 20.2139
rfoot -63.9692 -38.0167
rtoes 42.2145
lfemur -44.4093 19.4239 -32.4108
ltibia 50.186
lfoot -28.1595 25.7698
ltoes 5.02624
1373
root 9.37158 16.1665 -3.65173 -880.646 483.126 -538.194
lowerback -3.81491 0.682615 12.1425
upperback -11.3744 1.36114 -1.98691
thorax -9.98608 -0.425196 -9.08177
lowerneck 3.95119 -21.4985 -7.69573
upperneck -16.4861 -26.6658 26.7419
head -0.617398 -14.2075 8.6348
rclavicle -3.80673e-014 -3.1408e-014
rhumerus 89.9611 7.58003 -70.5862
rradius 75.3686
rwrist 2.75328
rhand -16.4564 419.344
rfingers 7.12502
rthumb 9.75988 389.59
lclavicle -3.80673e-014 -3.1408e-014
lhumerus -73.463 1.1121 89.1044
lradius 88.7114
lwrist -6.26096
lhand -7.91519 46.673
lfingers 7.12502
lthumb 17.9904 75.8609
rfemur -17.6655 -21.3659 34.7211
rtibia 22.4444
rfoot -61.7572 -38.6653
rtoes 41.5981
lfemur -44.9259 18.5169 -30.9331
ltibia 50.3162
lfoot -28.8925 23.4942
ltoes 1.35594
1374
root 9.59 16.1495 -3.71688 -883.055 478.521 -541.373
lowerback -5.14138 1.30896 13.8359
upperback -11.5687 2.16723 -1.21087
thorax -9.28782 -0.0599978 -9.15962
lowerneck 3.6504 -20.4102 -7.78425
upperneck -17.2864 -24.8684 27.402
head -0.96448 -13.3451 9.07051
rclavicle 3.25013e-014 2.78299e-015
rhumerus 92.1949 8.98498 -69.9047
rradius 75.8156
rwrist 6.02009
rhand -15.8992 418.584
rfingers 7.12502
rthumb 10.2974 388.856
lclavicle 3.25013e-014 2.78299e-015
lhumerus -72.7089 1.95245 89.6155
lradius 88.3198
lwrist -6.7599
lhand -6.75607 45.6163
lfingers 7.12502
lthumb 19.1054 74.6979
rfemur -19.4729 -22.5121 36.3044
rtibia 26.0677
rfoot -60.9829 -38.9173
rtoes 41.4841
lfemur -45.1125 16.9472 -29.5477
ltibia 50.5043
lfoot -29.6993 21.4328
ltoes 0.950984
1375
root 9.8053 16.1218 -3.7804 -885.544 473.739 -544.175
lowerback -6.49648 1.82958 14.7444
upperback -11.6853 2.75695 -0.617925
thorax -8.52029 0.275732 -8.96163
lowerneck 4.33792 -18.7985 -8.51437
upperneck -18.6244 -22.2362 28.8078
head -1.59039 -12.1638 10.0545
rclavicle 1.10325e-014 -3.33958e-014
rhumerus 93.9721 10.319 -68.7414
rradius 76.5127
rwrist 9.21546
rhand -15.5542 417.864
rfingers 7.12502
rthumb 10.6302 388.153
lclavicle 1.10325e-014 -3.33958e-014
lhumerus -71.8094 2.69779 90.1643
lradius 87.9364
lwrist -7.08886
lhand -5.66758 44.4502
lfingers 7.12502
lthumb 20.1519 73.425
rfemur -21.6871 -23.0618 37.0529
rtibia 31.1501
rfoot -60.0458 -39.0428
rtoes 42.2699
lfemur -44.7432 14.771 -28.4062
ltibia 50.5906
lfoot -29.7548 19.3608
ltoes 3.20844
1376
root 10.0211 16.0842 -3.84099 -886.419 469.018 -544.326
lowerback -7.39017 2.12619 14.2644
upperback -11.5654 3.05186 -0.438724
thorax -7.78833 0.557617 -8.44506
lowerneck 3.72251 -17.1877 -9.14514
upperneck -18.3964 -19.934 29.1685
head -1.70518 -10.9307 10.4334
rclavicle 6.27166e-014 1.03368e-014
rhumerus 95.3554 11.7099 -67.3856
rradius 77.4461
rwrist 12.4145
rhand -15.2345 417.093
rfingers 7.12502
rthumb 10.9385 387.398
lclavicle 6.27166e-014 1.03368e-014
lhumerus -71.0304 3.39798 90.6019
lradius 87.8915
lwrist -7.27164
lhand -4.65745 43.2391
lfingers 7.12502
lthumb 21.1225 72.1086
rfemur -23.4569 -24.5123 35.9616
rtibia 37.1807
rfoot -56.8979 -38.7489
rtoes 44.9878
lfemur -43.0841 12.2765 -28.2716
ltibia 50.4409
lfoot -29.291 17.1436
ltoes 4.79235
1377
root 10.2302 16.0152 -3.89318 -883.669 464.685 -540.133
lowerback -7.89299 2.33617 12.3533
upperback -11.1573 3.2693 -0.524863
thorax -6.96055 0.896038 -7.42173
lowerneck 1.40172 -15.9341 -9.20337
upperneck -16.7573 -18.4614 27.8459
head -1.28201 -9.87906 9.85712
rclavicle -1.22253e-014 -1.43125e-014
rhumerus 96.5713 12.9654 -65.4647
rradius 78.5821
rwrist 15.4291
rhand -15.0416 416.186
rfingers 7.12502
rthumb 11.1246 386.501
lclavicle -1.22253e-014 -1.43125e-014
lhumerus -70.1798 3.77788 91.2255
lradius 88.1578
lwrist -7.21747
lhand -3.94847 41.6287
lfingers 7.12502
lthumb 21.8034 70.4205
rfemur -24.7947 -26.6938 33.129
rtibia 43.5569
rfoot -49.0238 -40.9812
rtoes 49.2264
lfemur -40.5993 9.90875 -29.1404
ltibia 50.3042
lfoot -28.3294 14.658
ltoes 2.67632
